<svg xmlns="http://www.w3.org/2000/svg" xmlns:xlink="http://www.w3.org/1999/xlink"><symbol id="gulp" fill="currentColor" version="1.0" viewBox="0 0 600 375"><path d="M141.5 14.4C94.4 26.2 39.3 99.4 20 176c-11.7 46.3-9.1 75.4 8.2 91.6 21 19.6 49.8 11.1 88.6-26 4.5-4.3 8.2-7.6 8.2-7.2 0 .4-2.1 7.3-4.6 15.4-10 32.2-12.4 42-12.4 50.4 0 9.1 1.7 13.9 5.6 15.7 7 3.1 14.1-1.5 19.9-12.9 1.3-2.6 4.7-12.7 7.5-22.6 12.1-42 24.5-81.9 26.6-85.1 1.5-2.5 9.2-23.1 12.3-33.3 4.3-14.2 5.5-30.4 2.6-36-2.1-4.1-6.8-6.3-12.2-5.7-10 1.1-12.5 5-21.3 33.2-5.1 16.1-8.3 24.6-10.8 28.5-7.2 11.3-15.9 21.9-28.1 34.1-19.7 19.6-32.4 28.2-42.2 28.3-6 .1-9.5-2.3-12.9-9-2.4-4.6-2.5-5.8-2.4-20.9 0-12.9.5-17.9 2.3-25.5 9.7-41.5 35.5-92.5 60.9-120.3 14.9-16.5 28.4-25 39.5-25.1 10.1 0 15.3 3.8 22.9 16.9 8.6 14.8 14.6 19.7 21.2 17.5 3.8-1.2 8-5.4 9.5-9.3 1.7-4.5 1.3-15.7-.8-20.2-4.3-9.5-19.3-24.9-29.1-30-9.9-5.1-26.3-6.9-37.5-4.1zM415 33.6c-6.2 2.2-9.2 4.2-11.4 7.3-2.3 3.5-64.1 158.1-70.7 177-3.2 9.2-3.4 9.4-9.8 14.2-9.6 7-17.9 10.9-23.5 10.9-6 0-6.9-1.9-5.5-12.1 1.4-9.7 5.9-23.1 16.2-47.9 9.6-22.9 11.2-28.4 10.3-33.5-.9-4.9-5.9-10.3-10.2-11.1-9-1.7-15.6 6.5-22.3 27.1-3.6 10.9-14.2 31.9-22.1 43.7-8 12-20.1 24.2-27.6 27.8-2.9 1.5-6.6 2.3-10.2 2.4-5.2.1-5.7-.1-7-2.7-1.1-2.2-1.1-4.2-.2-10 1.8-11.9 6.5-24 18.6-48.4 6.4-12.8 11.8-25 12.1-27.2.5-3.4.1-4.3-2.9-7.6s-4.2-3.9-9-4.3c-10.2-.8-13.7 2.3-22.3 20.3-14.1 29.2-26.8 64.7-29.4 81.8-2.4 16.3 3.7 28.7 16.1 32.7 4.7 1.4 17.4 1.4 23.1-.1 7-1.8 15.8-5.9 21.6-9.9 6.2-4.2 16.6-14.6 20.2-20.1l2.4-3.6v12.1c0 10.9.2 12.5 2.3 15.8 2.6 4.2 9.2 7.8 14.3 7.8 7.6 0 21.1-5.6 33.3-13.9l5.9-4 2.3 4.8c3.9 8.6 12.1 12.8 22.9 11.8 13-1.2 26.6-8.3 43.9-22.8 9.3-7.8 10.3-8.5 9.1-5.6-.7 1.8-8.4 18.5-17 37.2-19.8 42.9-24.6 55-25.2 63.5-.6 7.9.6 11.4 4.9 14 3.9 2.4 11.6 2.7 15.7.6 3.2-1.7 9.4-8.3 11.4-12.3.8-1.5 4.9-12.2 9.2-23.8 10.3-27.8 17.9-47 25.4-63.8 3.3-7.6 6.1-14.1 6.1-14.3 0-.3 2.5-5.5 5.6-11.6 11.8-23.5 29.3-45.8 43.8-55.7 12.4-8.5 26.4-9.6 24.1-1.9-1.3 4.3-9.3 15.2-23.6 32.3-20.8 25-26.6 34.3-27.6 44-.7 7 1 11.8 5.8 15.8 5 4.3 9.7 5.7 19.5 5.7 13 0 23.2-3.7 37.8-13.4 9.1-6.1 19.5-14.9 45-38.1 14.3-13 17.9-16.8 19.6-20.8 3.9-9 2.4-18.2-3.5-20.9-1.9-.8-3.1-.7-6.2.9-2.3 1.2-3.7 2.7-3.7 3.7.3 3-54.7 49.9-67.8 57.8-6.6 4.1-9.8 4.7-11.8 2.3-1.6-2-.5-3.7 12.9-19.5 13.8-16.3 16.7-19.9 23-29.3 18.9-28.2 17.9-46.2-2.9-54.8-2.2-.8-6.7-1.4-12-1.3-7 0-9.6.5-14.9 2.8-9.1 3.9-19 10.7-28.1 19.3l-8 7.5.6-7.5c.5-5.1.3-8.6-.5-10.6-1.5-3.4-6.4-6.1-11-6.1-7.3 0-15.2 12.2-22.7 35-2.1 6.3-4.2 11.7-4.8 11.9-.5.2-6.1 5.3-12.5 11.4-26.5 25-48.7 39.8-53.7 35.6-1.7-1.4-1.8-5.9-.3-11.4 3.1-11.1 49.7-125.3 68.9-168.5 6.2-14 5.8-21.8-1.4-26.5-2.6-1.7-8.2-2.7-10.6-1.9z"/></symbol></svg>
